# generated from PmQm by Jehee Lee
:FULLY-SPECIFIED
:DEGREES
734
root -73.29974783 37.9969 -53.08847017 55.76774629 -82.66199468 -55.53575522
RightUpLeg -28.81442301 4.001554722 4.488786336
RightLeg 21.78801829 0 0
RightFoot 3.894744057 2.262324999 -1.004929622
RightToes 2.32829e-010 -1.59028e-015 9.93923e-017
Spine -8.85864 -5.1147 2.15902
Spine1 13.2645 -6.98564 6.37604
HEad -10.1836 3.71447 -0.298579
LeftShoulder1 9.93923e-017 0 1.22299e-017
LeftArm 13.6046 27.8414 -82.5725
LeftForeArm -33.7381 -20.3283 4.26896
LeftHand 0.85281 5.94591 -1.68942
RightShoulder 1.98785e-016 -4.96962e-017 1.55301e-017
RightArm 4.79104 -57.8585 79.5258
RightForeArm -25.3247 15.0762 -0.454751
RightHand 1.12097 -10.7754 -3.21477
LeftUpLeg 4.380608697 -4.663595127 16.37803849
LeftLeg 41.98548323 0 0
LeftFoot 13.6599385 -12.12520441 -8.150221865
LeftToes 8.82235e-011 9.04645e-011 1.87288e-011
735
root -74.79310811 37.9889 -52.99004907 61.30910642 -81.6574608 -61.63353468
RightUpLeg -27.36081427 3.092024091 5.916428331
RightLeg 25.42427931 0 0
RightFoot -0.247474677 3.42475466 -1.626773258
RightToes 2.32829e-010 -1.59028e-015 9.93923e-017
Spine -7.82617 -4.18321 4.85693
Spine1 13.5892 -5.81217 5.89013
HEad -11.1141 2.29806 0.547046
LeftShoulder1 9.93923e-017 0 1.22299e-017
LeftArm 2.37092 30.3708 -83.2703
LeftForeArm -21.1373 -14.5294 -2.58577
LeftHand 0.879318 6.09409 -2.61043
RightShoulder 1.98785e-016 -4.96962e-017 1.55301e-017
RightArm 3.13328 -53.2422 81.7141
RightForeArm -23.927 14.2745 0.861444
RightHand 1.12761 -10.7757 -3.38363
LeftUpLeg -1.34831553 -4.866859034 16.72217706
LeftLeg 51.27685083 1.414743802 4.682839935
LeftFoot 21.35984076 -11.74663636 -7.813080716
LeftToes 8.82235e-011 9.04645e-011 1.87288e-011
736
root -76.29764734 38.2368 -52.89518336 61.50640039 -81.555189 -62.21299191
RightUpLeg -24.65958869 3.57455611 6.032243162
RightLeg 26.16623397 0 0
RightFoot -2.854742273 3.170838892 -1.851311417
RightToes 2.32829e-010 -1.59028e-015 9.93923e-017
Spine -7.471 -3.38381 6.01816
Spine1 13.8059 -4.71277 5.16031
HEad -10.7382 0.819757 1.88153
LeftShoulder1 9.93923e-017 0 1.22299e-017
LeftArm -1.51826 33.0471 -83.3931
LeftForeArm -15.0812 -9.44565 -6.17775
LeftHand 0.93976 6.5249 -4.42647
RightShoulder 1.98785e-016 -4.96962e-017 1.55301e-017
RightArm 4.08717 -48.0352 83.6402
RightForeArm -24.1846 14.0368 1.48387
RightHand 1.15347 -10.7282 -4.27077
LeftUpLeg -6.732396798 -5.722584287 15.97786889
LeftLeg 58.11259624 1.769723689 9.421682591
LeftFoot 21.5160139 -11.44357429 -5.629999791
LeftToes 8.82235e-011 9.04645e-011 1.87288e-011
737
root -77.87041948 38.6402 -52.82234349 59.71007672 -82.26453698 -60.65250769
RightUpLeg -21.18734522 4.103678901 5.472206716
RightLeg 25.1079975 0 0
RightFoot -4.595149277 3.001313082 -1.475599005
RightToes 2.32829e-010 -1.59028e-015 9.93923e-017
Spine -7.67037 -2.51773 6.47335
Spine1 13.688 -3.46845 3.80072
HEad -9.14405 -0.707546 2.91489
LeftShoulder1 9.93923e-017 0 1.22299e-017
LeftArm 1.10318 36.3486 -82.924
LeftForeArm -14.1159 -7.68597 -7.38561
LeftHand 1.00284 7.13454 -6.18465
RightShoulder 1.98785e-016 -4.96962e-017 1.55301e-017
RightArm 7.34038 -43.5911 85.2189
RightForeArm -27.2352 15.2275 0.003924370001
RightHand 1.18297 -10.6363 -5.35387
LeftUpLeg -11.75278445 -6.593873763 13.96530359
LeftLeg 61.58131519 0.7635430078 12.12439308
LeftFoot 18.01902577 -11.00722191 -3.707900809
LeftToes 8.82235e-011 9.04645e-011 1.87288e-011
